<svg width="96" height="93" viewBox="0 0 96 93" fill="none" xmlns="http://www.w3.org/2000/svg">
<path d="M47.6314 0C41.3763 0 35.1825 1.23202 29.4036 3.62572C23.6247 6.01942 18.3739 9.52793 13.9509 13.9509C5.01829 22.8835 0 34.9988 0 47.6314C0 68.6844 13.6702 86.5462 32.5799 92.8812C34.9614 93.2622 35.7235 91.7857 35.7235 90.4996V82.4499C22.5296 85.3078 19.7194 76.0673 19.7194 76.0673C17.5283 70.5421 14.4323 69.0655 14.4323 69.0655C10.0979 66.1124 14.7657 66.2076 14.7657 66.2076C19.5289 66.541 22.0533 71.1136 22.0533 71.1136C26.1973 78.3536 33.1991 76.2102 35.9141 75.0671C36.3427 71.971 37.5812 69.8752 38.9148 68.6844C28.3407 67.4937 17.2426 63.3974 17.2426 45.2498C17.2426 39.9627 19.0526 35.7235 22.1486 32.3417C21.6723 31.1509 20.0052 26.1973 22.6249 19.767C22.6249 19.767 26.6259 18.481 35.7235 24.6254C39.4864 23.5775 43.5827 23.0536 47.6314 23.0536C51.68 23.0536 55.7763 23.5775 59.5392 24.6254C68.6368 18.481 72.6379 19.767 72.6379 19.767C75.2576 26.1973 73.5905 31.1509 73.1142 32.3417C76.2102 35.7235 78.0202 39.9627 78.0202 45.2498C78.0202 63.445 66.8745 67.446 56.2527 68.6368C57.9674 70.1134 59.5392 73.0189 59.5392 77.4486V90.4996C59.5392 91.7857 60.3013 93.3099 62.7305 92.8812C81.6402 86.4986 95.2628 68.6844 95.2628 47.6314C95.2628 41.3763 94.0307 35.1825 91.637 29.4036C89.2433 23.6247 85.7348 18.3739 81.3118 13.9509C76.8889 9.52793 71.638 6.01942 65.8591 3.62572C60.0802 1.23202 53.8864 0 47.6314 0Z" fill="#F2EAE1"/>
</svg>
