<svg width="96" height="94" viewBox="0 0 96 94" fill="none" xmlns="http://www.w3.org/2000/svg">
<path d="M48.1577 0.526276C41.9026 0.526276 35.7088 1.7583 29.9299 4.152C24.151 6.5457 18.9002 10.0542 14.4772 14.4772C5.54457 23.4098 0.526276 35.525 0.526276 48.1577C0.526276 69.2107 14.1965 87.0725 33.1061 93.4075C35.4877 93.7885 36.2498 92.3119 36.2498 91.0259V82.9762C23.0559 85.8341 20.2457 76.5936 20.2457 76.5936C18.0546 71.0683 14.9586 69.5918 14.9586 69.5918C10.6241 66.6386 15.292 66.7339 15.292 66.7339C20.0551 67.0673 22.5796 71.6399 22.5796 71.6399C26.7235 78.8799 33.7253 76.7365 36.4403 75.5933C36.869 72.4973 38.1074 70.4015 39.4411 69.2107C28.8669 68.0199 17.7688 63.9236 17.7688 45.7761C17.7688 40.489 19.5788 36.2498 22.6749 32.868C22.1986 31.6772 20.5315 26.7235 23.1512 20.2933C23.1512 20.2933 27.1522 19.0073 36.2498 25.1517C40.0127 24.1038 44.109 23.5799 48.1577 23.5799C52.2063 23.5799 56.3026 24.1038 60.0655 25.1517C69.1631 19.0073 73.1641 20.2933 73.1641 20.2933C75.7839 26.7235 74.1168 31.6772 73.6404 32.868C76.7365 36.2498 78.5465 40.489 78.5465 45.7761C78.5465 63.9713 67.4007 67.9723 56.7789 69.1631C58.4937 70.6397 60.0655 73.5452 60.0655 77.9749V91.0259C60.0655 92.3119 60.8276 93.8361 63.2568 93.4075C82.1665 87.0249 95.789 69.2107 95.789 48.1577C95.789 41.9026 94.557 35.7088 92.1633 29.9299C89.7696 24.151 86.2611 18.9002 81.8381 14.4772C77.4151 10.0542 72.1643 6.5457 66.3854 4.152C60.6065 1.7583 54.4127 0.526276 48.1577 0.526276Z" fill="#32302D"/>
</svg>
